<?xml version="1.0" encoding="UTF-8"?>
<svg xmlns="http://www.w3.org/2000/svg"
     width="512" height="512"
     viewBox="0 0 1024 1024"
     role="img"
     aria-label="jeremyknows hat logomark">
  <title>jeremyknows — hat with heart logomark</title>
  <g transform="translate(0.000000,1024.000000) scale(0.100000,-0.100000)"
fill="#0D0D0D" stroke="none">
<path d="M4769 7309 c-268 -18 -571 -70 -784 -134 -825 -249 -1224 -719 -1319
-1555 -21 -180 -36 -442 -36 -619 l0 -144 -67 7 c-38 4 -102 11 -143 16 -141
18 -410 24 -485 11 -225 -39 -324 -172 -285 -382 40 -217 278 -439 625 -584
439 -184 1034 -289 1995 -352 331 -21 1248 -24 1555 -5 1060 68 1678 172 2135
359 403 165 641 413 642 669 0 161 -106 264 -302 295 -91 14 -350 6 -530 -16
-69 -8 -128 -15 -132 -15 -5 0 -8 46 -8 103 0 411 -60 879 -143 1129 -181 540
-593 903 -1236 1087 -394 113 -978 164 -1482 130z m755 -254 c390 -34 700
-112 948 -236 470 -236 702 -590 772 -1180 25 -208 40 -480 27 -489 -14 -8
-310 -62 -496 -90 -231 -35 -688 -81 -910 -92 l-50 -3 -7 -63 c-16 -146 -92
-297 -220 -437 -46 -51 -173 -163 -263 -233 l-30 -23 185 6 c609 20 1257 106
1739 230 74 19 141 35 148 35 27 0 11 -16 -55 -53 -121 -69 -321 -148 -602
-236 -101 -31 305 29 500 75 189 44 405 121 563 201 110 55 201 117 279 189
l70 67 61 -6 c148 -13 153 -103 14 -238 -334 -327 -1138 -550 -2277 -634 -721
-52 -1281 -44 -2025 31 -890 89 -1608 330 -1887 632 -95 104 -99 177 -11 201
79 22 98 16 171 -52 239 -224 644 -384 1175 -462 60 -9 110 -15 113 -13 2 2
-52 23 -121 46 -190 65 -377 145 -465 198 -44 26 -78 50 -76 52 3 2 44 -7 93
-21 354 -99 877 -180 1439 -221 267 -20 642 -31 629 -19 -5 5 -57 48 -115 95
-181 147 -298 284 -355 413 -29 65 -55 162 -55 204 0 18 -6 33 -12 35 -7 2
-118 11 -246 20 -348 25 -652 63 -1016 128 l-179 32 7 140 c15 316 52 561 113
751 66 205 149 342 297 491 248 248 609 410 1101 494 278 47 720 62 1029 35z"/>
  </g>
  <g transform="translate(0.000000,1024.000000) scale(0.100000,-0.100000)"
fill="#E8233A" stroke="none">
<path d="M4695 5186 c-107 -50 -158 -133 -158 -252 1 -137 63 -264 197 -403
69 -71 276 -244 356 -297 48 -32 35 -38 213 105 297 239 417 422 405 617 -10
155 -121 254 -283 254 -101 0 -200 -61 -270 -166 l-37 -56 -28 49 c-84 147
-260 213 -395 149z"/>
  </g>
</svg>